# xmcd
#
# Track frame offsets:
# 150
# 12851
# 21396
# 35194
# 45730
# 55050
# 67200
# 78230
# 85112
# 92966
# 104954
# 117113
#
# Disc length: 1728 seconds
#
# Revision: 0
# Processed by: cddbd v1.5.1PL0 Copyright (c) Steve Scherf et al.
# Submitted via: Audion 3.0.2 (http://www.panic.com/audion/)
#
DISCID=a406be0c
DTITLE=The Oak Ridge Boys - Songs of Inspiration
DYEAR=1900
DGENRE=
TTITLE0=In the Shelter of My Arms-Heady
TTITLE1=Day of Rejoicing-Hinkle/Little, Copr. Faith Music
TTITLE2=Hide Thou Me-Burton, Copr. Stamps Music
TTITLE3=My Heavenly Father-C Gabriel/C.W. Martin, Copr. Rode Haven Music
TTITLE4=I Know My Savior is There-V. Ellis, Copr. Stamps Quartet Music
TTITLE5=When I Lay My Burdens Down-Vibbet,  Copr. Silverline Music
TTITLE6=I'll Wake Up on the Other Side-Weatherington, Copr. Faith Music
TTITLE7=Each Step I Take-Duke Rattray, Copr. Rue Publishing
TTITLE8=I Don't Mind My Journey-William York, Copr. Fort Knox Music
TTITLE9=Time Has Made a Change In Me-Frye, Copr. Stamps Music
TTITLE10=On the sunny Banks-D. Rambo, Copr. Zondervan Fiesta
TTITLE11=You'll Never Walk Alone-Rogers/Hammerstein, Copr. Williamson Music Co.
EXTD=
EXTT0=
EXTT1=
EXTT2=
EXTT3=
EXTT4=
EXTT5=
EXTT6=
EXTT7=
EXTT8=
EXTT9=
EXTT10=
EXTT11=
PLAYORDER=
